<?xml version="1.0" encoding="UTF-8"?>
<svg version="1.1" xmlns="http://www.w3.org/2000/svg" width="300" height="208">
<path d="M0 0 C0.68958801 -0.00133942 1.37917603 -0.00267883 2.08966064 -0.00405884 C12.69410108 0.00040963 22.74671043 0.59103753 33.0625 3.25 C34.46628906 3.57484375 34.46628906 3.57484375 35.8984375 3.90625 C41.37457824 5.39490962 44.03256421 7.42103983 47.0625 12.25 C47.875 15.625 47.875 15.625 48.0625 18.25 C49.25875 18.600625 50.455 18.95125 51.6875 19.3125 C70.68660511 25.73473271 86.21854805 38.03188719 100.0625 52.25 C100.5575 52.69988281 101.0525 53.14976563 101.5625 53.61328125 C123.42279252 74.00610043 136.04679162 106.81640846 138.0625 136.25 C138.17637911 141.2717476 138.15718086 146.2898103 138.125 151.3125 C138.11997314 152.66861813 138.11541234 154.02473808 138.11132812 155.38085938 C138.09962079 158.67061994 138.08322211 161.96028594 138.0625 165.25 C138.67738281 165.43175781 139.29226563 165.61351562 139.92578125 165.80078125 C140.73402344 166.05214844 141.54226563 166.30351562 142.375 166.5625 C143.17550781 166.80613281 143.97601563 167.04976562 144.80078125 167.30078125 C147.25038822 168.32885464 148.4828299 169.12081197 150.0625 171.25 C150.78838434 174.50605562 150.70976028 177.79693828 150.75 181.125 C150.80349609 182.02347656 150.85699219 182.92195312 150.91210938 183.84765625 C151.00224703 190.27115036 151.00224703 190.27115036 148.45483398 192.92456055 C130.63149948 204.53456848 103.25750027 204.11059641 82.6875 205.9375 C82.01045013 205.99825714 81.33340027 206.05901428 80.63583374 206.12161255 C61.00043054 207.85678981 41.38861926 208.41097977 21.68359375 208.41796875 C19.49381999 208.4211973 17.30404643 208.42456244 15.11427307 208.42805481 C10.55526226 208.43398878 5.99627025 208.43590069 1.43725586 208.43530273 C-3.17508879 208.43522156 -7.78733393 208.44216002 -12.3996582 208.45581055 C-43.24692758 208.54551217 -73.59103294 208.28496862 -104.17016602 203.75537109 C-106.79712807 203.36805143 -109.42648394 203.00164906 -112.05664062 202.63671875 C-144.38087425 198.0400518 -144.38087425 198.0400518 -149.9375 191.25 C-150.99062109 187.84186796 -150.92603869 184.72613277 -150.75 181.1875 C-150.75580078 180.28966797 -150.76160156 179.39183594 -150.76757812 178.46679688 C-150.67119727 174.28511124 -150.57851001 172.00712642 -147.82421875 168.75390625 C-144.51990886 167.03244575 -141.55952663 166.10224156 -137.9375 165.25 C-137.97302979 164.47285645 -138.00855957 163.69571289 -138.04516602 162.89501953 C-138.20235529 159.38857034 -138.35128153 155.88181824 -138.5 152.375 C-138.55607422 151.15167969 -138.61214844 149.92835938 -138.66992188 148.66796875 C-138.74243164 146.91806641 -138.74243164 146.91806641 -138.81640625 145.1328125 C-138.8635376 144.05402832 -138.91066895 142.97524414 -138.95922852 141.86376953 C-138.9375 139.25 -138.9375 139.25 -137.9375 137.25 C-137.67487739 135.84982476 -137.45285292 134.44188161 -137.25390625 133.03125 C-137.13225098 132.18626953 -137.0105957 131.34128906 -136.88525391 130.47070312 C-136.75812012 129.57287109 -136.63098633 128.67503906 -136.5 127.75 C-136.22923952 125.9164631 -135.95712133 124.08312614 -135.68359375 122.25 C-135.5532373 121.37601562 -135.42288086 120.50203125 -135.28857422 119.6015625 C-135.11479248 118.43753906 -135.11479248 118.43753906 -134.9375 117.25 C-134.78410156 116.21875 -134.63070312 115.1875 -134.47265625 114.125 C-133.31068325 107.396623 -130.74771082 101.44669273 -127.9375 95.25 C-127.64568848 94.59016113 -127.35387695 93.93032227 -127.05322266 93.25048828 C-120.99316594 79.57207455 -113.56813037 67.74838899 -103.9375 56.25 C-103.35097656 55.53972656 -102.76445313 54.82945313 -102.16015625 54.09765625 C-89.61041977 39.27132359 -71.48965149 26.21266921 -53.125 19.6875 C-49.18298099 18.23003237 -49.18298099 18.23003237 -46.59765625 15.09375 C-46.00096702 13.51623683 -45.42958921 11.92886484 -44.88671875 10.33203125 C-43.44894799 7.17840239 -41.5375465 6.2997153 -38.41015625 5.01953125 C-25.62280486 1.0398974 -13.31227962 0.01522601 0 0 Z " fill="#FEEF4C" transform="translate(149.9375,-0.25)"/>
<path d="M0 0 C1 3 1 3 0.30664062 4.79907227 C-0.07298828 5.46479248 -0.45261719 6.1305127 -0.84375 6.81640625 C-1.26237305 7.57099121 -1.68099609 8.32557617 -2.11230469 9.10302734 C-2.57024414 9.91465332 -3.02818359 10.7262793 -3.5 11.5625 C-8.51554093 20.79509651 -12.61401997 30.05724369 -16 40 C-16.2573291 40.74781738 -16.5146582 41.49563477 -16.77978516 42.26611328 C-20.80561951 54.27732647 -23.16892968 66.54332413 -25.3125 79 C-25.44173859 79.74603485 -25.57097717 80.4920697 -25.70413208 81.26071167 C-28.21680068 95.92013071 -29.13697944 110.46443759 -29.5625 125.3125 C-29.60584415 126.74675315 -29.64946251 128.18099804 -29.69335938 129.61523438 C-29.79872057 133.07673386 -29.90041812 136.53832884 -30 140 C-30.67240723 140.07516846 -31.34481445 140.15033691 -32.03759766 140.2277832 C-44.09874114 141.58212821 -56.15588295 142.96443744 -68.1875 144.5625 C-69.0758252 144.67698486 -69.96415039 144.79146973 -70.87939453 144.90942383 C-74.64798543 145.4208185 -78.13379655 146.0383651 -81.80078125 147.08984375 C-84.77206688 147.93515456 -86.95114725 148.07540417 -90 148 C-90.19619224 143.70868391 -90.38048583 139.41693898 -90.5625 135.125 C-90.61857422 133.90167969 -90.67464844 132.67835938 -90.73242188 131.41796875 C-90.80493164 129.66806641 -90.80493164 129.66806641 -90.87890625 127.8828125 C-90.9260376 126.80402832 -90.97316895 125.72524414 -91.02172852 124.61376953 C-91 122 -91 122 -90 120 C-89.73737739 118.59982476 -89.51535292 117.19188161 -89.31640625 115.78125 C-89.19475098 114.93626953 -89.0730957 114.09128906 -88.94775391 113.22070312 C-88.82062012 112.32287109 -88.69348633 111.42503906 -88.5625 110.5 C-88.29173952 108.6664631 -88.01962133 106.83312614 -87.74609375 105 C-87.6157373 104.12601562 -87.48538086 103.25203125 -87.35107422 102.3515625 C-87.23521973 101.57554688 -87.11936523 100.79953125 -87 100 C-86.84660156 98.96875 -86.69320312 97.9375 -86.53515625 96.875 C-85.37318325 90.146623 -82.81021082 84.19669273 -80 78 C-79.56228271 77.0102417 -79.56228271 77.0102417 -79.11572266 76.00048828 C-73.05566594 62.32207455 -65.63063037 50.49838899 -56 39 C-55.41347656 38.28972656 -54.82695313 37.57945313 -54.22265625 36.84765625 C-40.23918128 20.32749648 -20.2654931 7.41896664 0 0 Z " fill="#F0D50C" transform="translate(102,17)"/>
<path d="M0 0 C0.73702148 -0.02602295 1.47404297 -0.0520459 2.23339844 -0.07885742 C10.09334996 -0.10456092 15.66810847 3.21716225 21.5 8.3125 C31.40813834 16.48557264 41.23469299 19.68300365 53.8996582 19.6496582 C54.90874237 19.65476913 55.91782654 19.65988007 56.95748901 19.66514587 C60.2803141 19.67900104 63.60293078 19.67808794 66.92578125 19.67578125 C69.24594703 19.67967081 71.56611209 19.68400602 73.88627625 19.68876648 C78.74574086 19.69622024 83.60513281 19.69594379 88.46459961 19.69067383 C94.67500624 19.68488471 100.88511411 19.70180111 107.09547138 19.7250185 C111.88689395 19.73979119 116.67824519 19.74062264 121.46968651 19.73750877 C123.75849181 19.73802035 126.04730127 19.74322716 128.33608437 19.75332069 C131.54496975 19.76573424 134.75328117 19.75886336 137.9621582 19.74731445 C139.36447441 19.75878006 139.36447441 19.75878006 140.79512024 19.77047729 C155.12942578 19.65713786 166.66304411 13.31876127 177.3359375 4.109375 C185.13597177 -1.80054858 196.19693958 -0.3536466 205.45507812 0.69580078 C237.34198132 5.10785884 237.34198132 5.10785884 246.625 13.375 C228.68371912 26.55634922 200.68295244 26.15895419 179.25 28.0625 C178.57295013 28.12325714 177.89590027 28.18401428 177.19833374 28.24661255 C157.56293054 29.98178981 137.95111926 30.53597977 118.24609375 30.54296875 C116.05631999 30.5461973 113.86654643 30.54956244 111.67677307 30.55305481 C107.11776226 30.55898878 102.55877025 30.56090069 97.99975586 30.56030273 C93.38741121 30.56022156 88.77516607 30.56716002 84.1628418 30.58081055 C53.31557242 30.67051217 22.97146706 30.40996862 -7.60766602 25.88037109 C-10.23462807 25.49305143 -12.86398394 25.12664906 -15.49414062 24.76171875 C-43.25634287 20.80911545 -43.25634287 20.80911545 -53.375 13.375 C-45.57716276 5.8460537 -33.63284027 4.26137106 -23.375 2.375 C-21.70630859 2.06369141 -21.70630859 2.06369141 -20.00390625 1.74609375 C-13.34386775 0.64507004 -6.74061866 0.12962728 0 0 Z " fill="#F1D60C" transform="translate(53.375,177.625)"/>
<path d="M0 0 C0.66 0 1.32 0 2 0 C3.09057617 1.45507812 3.09057617 1.45507812 4.29296875 3.53125 C4.98048218 4.70095337 4.98048218 4.70095337 5.68188477 5.89428711 C6.17873779 6.75417236 6.67559082 7.61405762 7.1875 8.5 C8.26088679 10.32547525 9.33651249 12.14963538 10.4140625 13.97265625 C10.98930664 14.94605957 11.56455078 15.91946289 12.15722656 16.92236328 C15.38224329 22.30850012 18.72339172 27.62160383 22.0625 32.9375 C23.3243232 34.94654899 24.58604823 36.95565963 25.84765625 38.96484375 C26.6521521 40.24282837 26.6521521 40.24282837 27.47290039 41.54663086 C27.97684326 42.35624268 28.48078613 43.16585449 29 44 C29.60126709 44.8463501 30.20253418 45.6927002 30.82202148 46.56469727 C32 49 32 49 31.50317383 51.11694336 C29.58202813 53.52360193 27.65063857 54.64932668 24.94921875 56.12890625 C23.94052734 56.68900391 22.93183594 57.24910156 21.89257812 57.82617188 C20.83490234 58.39916016 19.77722656 58.97214844 18.6875 59.5625 C16.60788698 60.70929831 14.52845372 61.85642266 12.44921875 63.00390625 C11.52455811 63.50736572 10.59989746 64.0108252 9.6472168 64.52954102 C6.96083541 65.94873834 6.96083541 65.94873834 4.53442383 67.81225586 C2 69 2 69 -0.9362793 68.39819336 C-5.86592322 66.14844671 -10.4427486 63.40115689 -15.07885742 60.60522461 C-16.81907778 59.5585437 -18.56818626 58.5279781 -20.31835938 57.49804688 C-21.96481445 56.51094727 -21.96481445 56.51094727 -23.64453125 55.50390625 C-24.64846924 54.90392822 -25.65240723 54.3039502 -26.68676758 53.68579102 C-29 52 -29 52 -30 49 C-28.85107422 46.60595703 -28.85107422 46.60595703 -27.0546875 43.7578125 C-26.3954126 42.70078125 -25.7361377 41.64375 -25.05688477 40.5546875 C-24.32973928 39.41136328 -23.60244112 38.26813614 -22.875 37.125 C-22.14343332 35.9589705 -21.41289058 34.79229798 -20.68334961 33.625 C-19.19308131 31.2432775 -17.69762472 28.86494441 -16.19775391 26.48925781 C-12.95351152 21.34633266 -9.75999237 16.17206492 -6.5625 11 C-5.73951416 9.67572998 -5.73951416 9.67572998 -4.89990234 8.32470703 C-4.39797363 7.51630371 -3.89604492 6.70790039 -3.37890625 5.875 C-2.9413501 5.17117187 -2.50379395 4.46734375 -2.05297852 3.7421875 C-0.95895822 1.9845129 -0.95895822 1.9845129 0 0 Z " fill="#6E6F6F" transform="translate(149,48)"/>
<path d="M0 0 C4.00880423 3.73110731 6.9453983 7.5954655 9.8125 12.25 C10.24264404 12.94601318 10.67278809 13.64202637 11.1159668 14.35913086 C25.73674993 38.52002226 32.24274609 63.93024553 32.0625 92.0625 C32.05747314 93.41861813 32.05291234 94.77473808 32.04882812 96.13085938 C32.03712079 99.42061994 32.02072211 102.71028594 32 106 C22.48939319 105.02614702 22.48939319 105.02614702 18 104 C17.2575 103.835 16.515 103.67 15.75 103.5 C14 103 14 103 13 102 C12.87674289 99.90348441 12.81998522 97.80303303 12.7890625 95.703125 C12.76348637 94.35309509 12.7371668 93.00307912 12.71020508 91.65307617 C12.69696198 90.9362265 12.68371887 90.21937683 12.67007446 89.48080444 C12.12426525 62.46786771 11.2945175 32.88657231 1.3125 7.45703125 C0 4 0 4 0 0 Z " fill="#FEEA01" transform="translate(256,59)"/>
<path d="M0 0 C0.33 0 0.66 0 1 0 C1 22.44 1 44.88 1 68 C-6.4438314 64.2780843 -13.62283938 60.63348575 -20.6875 56.3125 C-21.48349609 55.84005859 -22.27949219 55.36761719 -23.09960938 54.88085938 C-24.23172852 54.1915332 -24.23172852 54.1915332 -25.38671875 53.48828125 C-26.05920654 53.08134033 -26.73169434 52.67439941 -27.42456055 52.25512695 C-29 51 -29 51 -30 48 C-28.86694336 45.62182617 -28.86694336 45.62182617 -27.08984375 42.79296875 C-26.4357251 41.74093262 -25.78160645 40.68889648 -25.10766602 39.60498047 C-24.38461604 38.4656053 -23.66121984 37.32644979 -22.9375 36.1875 C-22.20876771 35.02539506 -21.48082848 33.86279246 -20.75366211 32.69970703 C-18.88285944 29.71334051 -16.99930826 26.73523051 -15.1126709 23.7588501 C-13.35056759 20.97341231 -11.60211409 18.17942588 -9.8515625 15.38671875 C-8.58949928 13.38220926 -7.32652388 11.3782737 -6.0625 9.375 C-5.46622803 8.42778076 -4.86995605 7.48056152 -4.25561523 6.50463867 C-3.70848877 5.64459229 -3.1613623 4.7845459 -2.59765625 3.8984375 C-2.11820557 3.14224121 -1.63875488 2.38604492 -1.14477539 1.60693359 C-0.76699951 1.07664551 -0.38922363 0.54635742 0 0 Z " fill="#0C0C0A" transform="translate(149,49)"/>
<path d="M0 0 C3.41416844 1.27655968 6.40226204 2.7487429 9.46875 4.71484375 C10.69658203 5.49698242 10.69658203 5.49698242 11.94921875 6.29492188 C12.79097656 6.83697266 13.63273438 7.37902344 14.5 7.9375 C16.96718409 9.51491096 19.43471494 11.09133565 21.91015625 12.65576172 C23.54286865 13.70596201 25.13889067 14.81325957 26.71875 15.94140625 C29.88457797 17.41048053 31.63103553 16.81442433 35 16 C37.89923099 14.53351648 37.89923099 14.53351648 40.73046875 12.62109375 C41.78041016 11.94755859 42.83035156 11.27402344 43.91210938 10.58007812 C44.99298828 9.87302734 46.07386719 9.16597656 47.1875 8.4375 C49.34375179 7.03434618 51.50373777 5.63690885 53.66796875 4.24609375 C54.61953857 3.62404053 55.5711084 3.0019873 56.55151367 2.36108398 C59 1 59 1 62 1 C60.78078089 2.72722707 59.56155247 4.45444758 58.34228516 6.18164062 C57.26889003 7.70236602 56.19565117 9.22320173 55.12255859 10.74414062 C52.33269428 14.69786973 49.54052114 18.64991599 46.7421875 22.59765625 C45.70305973 24.06505795 44.66399578 25.53250485 43.625 27 C42.87162354 28.06226807 42.87162354 28.06226807 42.10302734 29.14599609 C38.97795373 33.56701008 35.95224368 38.03413058 33.0859375 42.62890625 C32.72757813 43.08136719 32.36921875 43.53382813 32 44 C31.34 44 30.68 44 30 44 C28.77001953 42.52563477 28.77001953 42.52563477 27.3828125 40.44140625 C26.86396484 39.67094971 26.34511719 38.90049316 25.81054688 38.10668945 C25.25431641 37.26710693 24.69808594 36.42752441 24.125 35.5625 C22.95172065 33.8169013 21.7772144 32.07212669 20.6015625 30.328125 C20.00375977 29.43931641 19.40595703 28.55050781 18.79003906 27.63476562 C15.61763445 22.96529064 12.33547878 18.37384123 9.04736328 13.78540039 C5.84996979 9.2956943 2.87131243 4.70481047 0 0 Z " fill="#70706E" transform="translate(119,111)"/>
<path d="M0 0 C3.37617578 1.26652897 6.35595447 2.71298376 9.3984375 4.64453125 C10.20796875 5.15693359 11.0175 5.66933594 11.8515625 6.19726562 C12.68429688 6.73029297 13.51703125 7.26332031 14.375 7.8125 C15.6125 8.59463867 15.6125 8.59463867 16.875 9.39257812 C18.50146523 10.42654531 20.11793846 11.47641935 21.72338867 12.54272461 C23.93321612 14.01455533 23.93321612 14.01455533 26.14575195 15.06860352 C28.25850627 16.21739194 29.55259074 17.07040346 31 19 C31.84678995 23.13709721 31.66087195 27.11261642 31.4375 31.3125 C31.39012695 32.99569336 31.39012695 32.99569336 31.34179688 34.71289062 C31.25943395 37.47793172 31.14448575 40.23762302 31 43 C26.37451441 38.74628241 22.97797181 33.92161423 19.4375 28.75 C18.20487001 26.96714161 16.9717883 25.18459544 15.73828125 23.40234375 C15.11904785 22.50499512 14.49981445 21.60764648 13.86181641 20.68310547 C10.47118791 15.79679453 7.01504187 10.95649942 3.55639648 6.11816406 C0 1.10956726 0 1.10956726 0 0 Z " fill="#0E0D0A" transform="translate(119,111)"/>
</svg>
