<svg width="25" height="21" viewBox="0 0 25 21" fill="none" xmlns="http://www.w3.org/2000/svg">
<path d="M12.3895 3.01297C12.4267 2.88659 12.5734 2.88659 12.6106 3.01297L14.5811 9.70944C14.6218 9.84773 14.4854 9.96194 14.394 9.86617L12.5766 7.96191C12.5325 7.91576 12.4675 7.91576 12.4235 7.96191L10.6061 9.86617C10.5146 9.96194 10.3783 9.84773 10.419 9.70944L12.3895 3.01297Z" fill="#A7A7A7"/>
<path d="M12.4358 12.0284C12.4748 12.0593 12.5252 12.0593 12.5642 12.0284L14.4563 10.525C14.5712 10.4336 14.4862 10.2173 14.3558 10.2692L12.5364 10.9919C12.5128 11.0013 12.4872 11.0013 12.4636 10.9919L10.6442 10.2692C10.5137 10.2173 10.4288 10.4336 10.5437 10.525L12.4358 12.0284Z" fill="#A7A7A7"/>
<path d="M24.9991 0.14024L24.4392 4.86902C24.4358 4.89781 24.4223 4.92457 24.4008 4.94476L22.1265 7.09158C22.0432 7.17011 22.1004 7.30727 22.2165 7.30727H23.7266C23.8291 7.30727 23.8908 7.41769 23.8349 7.50122L22.2303 9.90242C22.2088 9.93464 22.1734 9.9555 22.1342 9.95904L19.3158 10.2191C19.2 10.2298 19.1565 10.3721 19.2476 10.4425L20.4497 11.3711C20.4725 11.3887 20.5009 11.3983 20.5301 11.3983H21.855C21.9739 11.3983 22.0297 11.5415 21.9405 11.618L19.7298 13.5166C19.7136 13.5304 19.694 13.5402 19.673 13.5449L16.2799 14.2979C16.1637 14.3237 16.1423 14.4755 16.247 14.5307L17.0859 14.9729C17.1108 14.986 17.1396 14.9908 17.1676 14.9865L18.0683 14.8481C18.1911 14.8293 18.2677 14.9732 18.1811 15.0598L16.0329 17.2051C15.9843 17.2536 15.9051 17.256 15.8535 17.2106L15.0609 16.5127C14.9779 16.4395 14.8449 16.4968 14.8449 16.6058V18.1742C14.8449 18.2014 14.8358 18.2279 14.819 18.2496L14.8181 18.2509C14.8005 18.2736 12.8912 20.7401 12.7317 20.8916C12.7204 20.9024 12.7095 20.9126 12.6991 20.9225C12.5887 21.027 12.4088 21.0253 12.2987 20.9206C12.289 20.9113 12.2788 20.9017 12.2683 20.8916C12.1092 20.7401 10.1993 18.2733 10.1819 18.2509L10.1809 18.2496C10.1642 18.2279 10.1551 18.2014 10.1551 18.1742V16.6058C10.1551 16.4968 10.0221 16.4395 9.93907 16.5127L9.1465 17.2106C9.09492 17.256 9.01564 17.2536 8.96713 17.2051L6.81889 15.0598C6.73222 14.9732 6.80893 14.8293 6.93167 14.8481L7.83234 14.9865C7.8604 14.9908 7.88916 14.986 7.91407 14.9729L8.75297 14.5307C8.85769 14.4755 8.83627 14.3237 8.7201 14.2979L5.32698 13.5449C5.30592 13.5402 5.28639 13.5304 5.27019 13.5166L3.05948 11.618C2.9703 11.5415 3.02603 11.3983 3.14504 11.3983H4.46988C4.49907 11.3983 4.52742 11.3887 4.55028 11.3711L5.75238 10.4425C5.84344 10.3721 5.79999 10.2298 5.68419 10.2191L2.86581 9.95904C2.82655 9.9555 2.79114 9.93464 2.76966 9.90242L1.16499 7.50122C1.10916 7.41769 1.17086 7.30727 1.27337 7.30727H2.78349C2.89953 7.30727 2.95676 7.17011 2.87352 7.09158L0.599121 4.94476C0.577731 4.92457 0.564191 4.89781 0.560782 4.86902L0.000904708 0.14024C-0.0116215 0.0344396 0.108527 -0.0375409 0.200161 0.0208763L4.09029 2.50087L10.0676 5.92492C10.1149 5.95207 10.1394 6.00547 10.1286 6.0579L9.27569 10.1809C9.26704 10.2231 9.28102 10.2666 9.31293 10.2963L12.4602 13.233C12.4857 13.2567 12.5 13.2895 12.5 13.3236C12.5 13.2895 12.5143 13.2567 12.5397 13.233L15.687 10.2963C15.719 10.2666 15.7329 10.2231 15.7243 10.1809L14.8714 6.0579C14.8606 6.00547 14.885 5.95207 14.9324 5.92492L20.9097 2.50087L24.7998 0.0208763C24.8914 -0.0375409 25.0116 0.0344396 24.9991 0.14024Z" fill="#A7A7A7"/>
</svg>
