<svg width="21" height="21" viewBox="0 0 21 21" fill="none" xmlns="http://www.w3.org/2000/svg">
<g clip-path="url(#clip0_2491_1893)">
<path d="M19.4494 0H1.55148C0.69468 0 0 0.67368 0 1.50444V19.4947C0 20.3263 0.69468 21 1.55148 21H19.4494C20.3062 21 21 20.3255 21 19.4947V1.50444C21 0.67368 20.3062 0 19.4494 0Z" fill="#A7A7A7"/>
<path d="M15.4106 12.2111C14.5841 12.2111 13.8104 11.8608 13.1065 11.2904L13.2779 10.4857L13.2854 10.4563C13.4383 9.59952 13.9222 8.1606 15.4106 8.1606C16.527 8.1606 17.435 9.07032 17.435 10.1875C17.4317 11.3014 16.5236 12.2111 15.4106 12.2111ZM15.4106 6.1068C13.5089 6.1068 12.0347 7.34412 11.4358 9.3786C10.5202 8.00352 9.828 6.35292 9.42228 4.96272H7.37604V10.295C7.37604 11.3459 6.52008 12.2027 5.47008 12.2027C4.42008 12.2027 3.56496 11.3459 3.56496 10.295V4.96272H1.51788V10.295C1.51032 12.479 3.28608 14.2716 5.46672 14.2716C7.64736 14.2716 9.42312 12.479 9.42312 10.295V9.40044C9.82128 10.2312 10.3085 11.0695 10.9007 11.8154L9.64656 17.7181H11.7424L12.6504 13.4366C13.4467 13.9474 14.3623 14.2674 15.4123 14.2674C17.6568 14.2674 19.4838 12.4261 19.4838 10.1791C19.4821 7.93632 17.6551 6.1068 15.4106 6.1068Z" fill="#060606"/>
</g>
<defs>
<clipPath id="clip0_2491_1893">
<rect width="21" height="21" fill="white"/>
</clipPath>
</defs>
</svg>
